#!OML:ASF H:\Male1\Project 1\Capture day 1\Session 1\Male1.ASF
:FULLY-SPECIFIED
:DEGREES
754
root 14.9705 14.7789 -2.82888 -373.552 -105.757 369.39
lowerback 6.5855 0.96369 4.03583
upperback 6.07761 1.21886 -0.592969
thorax 2.70805 0.665541 -2.92876
lowerneck -7.26895 4.65213 10.2795
upperneck 8.72701 5.98342 -9.02144
head 4.37949 2.81647 -4.08857
rclavicle 2.68359e-014 1.07344e-014
rhumerus -50.7528 23.4187 -95.4279
rradius 119.617
rwrist -11.9108
rhand -25.156 19.913
rfingers 7.12502
rthumb 1.36086 -10.0624
lclavicle 2.68359e-014 1.07344e-014
lhumerus -44.6024 -4.52908 79.6859
lradius 108.297
lwrist -3.65704
lhand -15.9637 -7.8117
lfingers 7.12502
lthumb 10.2351 21.9193
rfemur -8.26516 14.3055 30.4995
rtibia 38.6768
rfoot -32.6156 -22.5883
rtoes -28.193
lfemur -22.3565 1.6018 -15.5233
ltibia 55.4935
lfoot -27.8313 22.8915
ltoes 15.455
755
root 14.9841 14.7783 -2.85035 -373.485 -105.671 369.476
lowerback 6.44053 0.830965 4.1658
upperback 5.95577 1.05229 -0.544084
thorax 2.64967 0.586403 -2.94334
lowerneck -7.28839 4.74498 10.2168
upperneck 8.93554 6.12371 -9.0272
head 4.45838 2.88117 -4.06922
rclavicle -3.60794e-014 1.98785e-015
rhumerus -50.9224 23.4613 -95.3118
rradius 119.53
rwrist -11.8987
rhand -24.9745 19.7883
rfingers 7.12502
rthumb 1.53623 -10.1859
lclavicle -3.60794e-014 1.98785e-015
lhumerus -44.7646 -4.31114 79.741
lradius 107.882
lwrist -3.88
lhand -15.834 -7.75157
lfingers 7.12502
lthumb 10.3603 21.9732
rfemur -8.46736 14.512 30.6406
rtibia 38.6951
rfoot -33.1858 -22.9043
rtoes -28.4184
lfemur -22.4115 1.61209 -15.6048
ltibia 55.2181
lfoot -28.5145 23.2286
ltoes 16.6886
756
root 14.9957 14.7741 -2.86782 -373.731 -105.528 369.738
lowerback 6.38247 0.688283 4.35961
upperback 5.94739 0.868009 -0.488837
thorax 2.66191 0.500348 -2.98738
lowerneck -7.46303 4.86749 10.1861
upperneck 9.12534 6.28554 -9.01615
head 4.56032 2.9552 -4.04485
rclavicle 1.90336e-014 -6.16232e-015
rhumerus -51.0103 23.4636 -95.1699
rradius 119.383
rwrist -11.5186
rhand -24.8894 19.9481
rfingers 7.12502
rthumb 1.61843 -10.0255
lclavicle 1.90336e-014 -6.16232e-015
lhumerus -44.665 -4.21847 79.7836
lradius 107.338
lwrist -4.05222
lhand -15.7839 -7.72995
lfingers 7.12502
lthumb 10.4087 21.9924
rfemur -8.51932 14.4857 30.8015
rtibia 38.7434
rfoot -33.5343 -23.1729
rtoes -28.2037
lfemur -22.2467 1.38138 -15.5808
ltibia 54.8965
lfoot -29.0496 23.4027
ltoes 16.8366
757
root 15.0072 14.7691 -2.88096 -374.007 -105.327 369.956
lowerback 6.42976 0.55132 4.59941
upperback 5.98662 0.69334 -0.467281
thorax 2.66748 0.420401 -3.09368
lowerneck -7.56676 4.80113 10.0308
upperneck 9.13908 6.19261 -8.89458
head 4.56395 2.90841 -3.98639
rclavicle -1.88348e-014 5.76476e-015
rhumerus -51.0349 23.412 -94.9881
rradius 119.203
rwrist -11.1649
rhand -24.8499 20.3229
rfingers 7.12502
rthumb 1.65658 -9.65044
lclavicle -1.88348e-014 5.76476e-015
lhumerus -44.4572 -4.27579 79.7568
lradius 106.768
lwrist -4.22512
lhand -15.8174 -7.548
lfingers 7.12502
lthumb 10.3763 22.176
rfemur -8.53163 14.3744 30.9156
rtibia 38.854
rfoot -33.6838 -23.3146
rtoes -27.7866
lfemur -21.9387 0.86912 -15.5502
ltibia 54.517
lfoot -29.3604 23.6343
ltoes 16.274
758
root 15.0263 14.7663 -2.89476 -373.526 -104.949 369.449
lowerback 6.58156 0.419108 4.53483
upperback 5.9577 0.52323 -0.457516
thorax 2.53625 0.329351 -3.04213
lowerneck -7.62444 4.74004 10.0087
upperneck 9.09569 6.1163 -8.99239
head 4.55524 2.86366 -4.01852
rclavicle 1.42628e-014 4.37326e-015
rhumerus -51.1646 23.3646 -94.7559
rradius 119.122
rwrist -11.1121
rhand -24.8421 20.5924
rfingers 7.12502
rthumb 1.66409 -9.38087
lclavicle 1.42628e-014 4.37326e-015
lhumerus -44.1947 -4.46223 79.7866
lradius 106.07
lwrist -4.54651
lhand -15.9903 -7.29799
lfingers 7.12502
lthumb 10.2095 22.4343
rfemur -8.70524 14.4125 30.8211
rtibia 39.0477
rfoot -33.7244 -23.5664
rtoes -27.3123
lfemur -21.7031 0.0911707 -15.695
ltibia 54.0798
lfoot -29.4133 23.793
ltoes 15.3272
759
root 15.049 14.7671 -2.91142 -372.452 -104.337 368.434
lowerback 6.74926 0.258605 4.24737
upperback 5.86165 0.312667 -0.472623
thorax 2.31931 0.210095 -2.88845
lowerneck -7.66545 4.68381 9.96554
upperneck 9.09139 6.05103 -9.08131
head 4.55576 2.82413 -4.04391
rclavicle -2.6985e-014 -4.37326e-015
rhumerus -51.4896 23.2928 -94.6202
rradius 119.147
rwrist -11.3051
rhand -24.8797 20.4962
rfingers 7.12502
rthumb 1.62778 -9.47735
lclavicle -2.6985e-014 -4.37326e-015
lhumerus -43.8775 -4.76515 79.8409
lradius 105.289
lwrist -4.63075
lhand -16.1445 -7.29813
lfingers 7.12502
lthumb 10.0608 22.4414
rfemur -9.05606 14.4451 30.5545
rtibia 39.3273
rfoot -33.8241 -23.8852
rtoes -26.4524
lfemur -21.6116 -0.775048 -15.9354
ltibia 53.5975
lfoot -29.2001 23.7425
ltoes 14.1004
760
root 15.0697 14.7673 -2.92857 -371.88 -103.624 367.99
lowerback 6.83196 0.0302741 4.1062
upperback 5.80509 0.0111052 -0.463409
thorax 2.18785 0.0520575 -2.78575
lowerneck -7.82714 4.63973 9.80265
upperneck 9.11326 5.99194 -9.0197
head 4.57689 2.78897 -3.9995
rclavicle 1.98785e-015 -1.51076e-014
rhumerus -51.7942 23.251 -94.5113
rradius 119.091
rwrist -11.6537
rhand -24.8534 20.5083
rfingers 7.12502
rthumb 1.65311 -9.46505
lclavicle 1.98785e-015 -1.51076e-014
lhumerus -43.389 -5.02422 79.8098
lradius 104.398
lwrist -4.34697
lhand -16.4797 -7.71563
lfingers 7.12502
lthumb 9.73734 22.0393
rfemur -9.48583 14.3469 30.4049
rtibia 39.6628
rfoot -33.9782 -24.2011
rtoes -25.173
lfemur -21.5817 -1.41634 -15.9885
ltibia 53.1067
lfoot -28.8316 23.4216
ltoes 12.002
761
root 15.0876 14.7638 -2.94719 -370.885 -102.907 367.057
lowerback 6.84369 -0.179085 3.81123
upperback 5.84323 -0.282336 -0.446667
thorax 2.19634 -0.104488 -2.58857
lowerneck -7.88185 4.52815 9.59721
upperneck 8.92954 5.84836 -8.97942
head 4.50876 2.71342 -3.96329
rclavicle -2.07978e-014 -2.98177e-015
rhumerus -51.9769 23.2186 -94.1962
rradius 118.9
rwrist -12.1432
rhand -24.6137 20.8261
rfingers 7.12502
rthumb 1.88469 -9.14531
lclavicle -2.07978e-014 -2.98177e-015
lhumerus -42.5184 -5.27322 79.7795
lradius 103.263
lwrist -3.87713
lhand -16.6246 -8.01604
lfingers 7.12502
lthumb 9.59753 21.7453
rfemur -9.8453 14.1235 30.1499
rtibia 40.0105
rfoot -34.0518 -24.4837
rtoes -23.4855
lfemur -21.4461 -1.49838 -16.1322
ltibia 52.6198
lfoot -28.756 22.669
ltoes 8.92141
762
root 15.1037 14.7579 -2.96622 -369.52 -102.122 365.667
lowerback 6.94481 -0.366289 3.4376
upperback 5.89051 -0.54779 -0.455363
thorax 2.17008 -0.250299 -2.37421
lowerneck -8.01448 4.4498 9.71421
upperneck 8.7996 5.74887 -9.33546
head 4.49579 2.64655 -4.10014
rclavicle 7.15625e-015 4.47266e-015
rhumerus -52.262 23.0851 -93.7721
rradius 118.674
rwrist -12.5954
rhand -24.3081 21.1578
rfingers 7.12502
rthumb 2.17983 -8.81079
lclavicle 7.15625e-015 4.47266e-015
lhumerus -41.5102 -5.67811 79.785
lradius 102.067
lwrist -3.18248
lhand -16.1753 -7.43468
lfingers 7.12502
lthumb 10.031 22.3063
rfemur -10.0794 13.7935 29.821
rtibia 40.3234
rfoot -34.2902 -24.5668
rtoes -20.9959
lfemur -21.2364 -0.949038 -16.3549
ltibia 52.1912
lfoot -29.1076 21.5422
ltoes 5.19087
763
root 15.1197 14.7526 -2.98602 -368.491 -101.18 364.644
lowerback 7.06027 -0.612217 3.18567
upperback 5.93376 -0.885539 -0.448272
thorax 2.13052 -0.428879 -2.20722
lowerneck -8.30054 4.41969 9.72575
upperneck 8.73843 5.71897 -9.70475
head 4.5336 2.60479 -4.21646
rclavicle 1.81018e-014 -4.87022e-015
rhumerus -52.6786 22.9676 -93.3073
rradius 118.378
rwrist -12.6635
rhand -24.3085 21.3316
rfingers 7.12502
rthumb 2.17942 -8.63703
lclavicle 1.81018e-014 -4.87022e-015
lhumerus -40.4717 -6.18127 79.8091
lradius 100.871
lwrist -2.25129
lhand -15.9201 -6.51517
lfingers 7.12502
lthumb 10.2772 23.2137
rfemur -10.2919 13.5466 29.6145
rtibia 40.5942
rfoot -34.762 -24.757
rtoes -18.4975
lfemur -21.1202 0.143803 -16.4963
ltibia 51.8866
lfoot -29.3443 20.41
ltoes 1.22927
764
root 15.1345 14.7489 -3.00999 -367.914 -100.176 364.092
lowerback 7.15067 -0.898636 3.01885
upperback 5.98198 -1.27457 -0.417703
thorax 2.10978 -0.630468 -2.0604
lowerneck -8.66468 4.41743 9.58805
upperneck 8.79111 5.73128 -9.93828
head 4.61524 2.58258 -4.26128
rclavicle -2.01207e-014 1.83876e-015
rhumerus -53.1709 22.9136 -92.7954
rradius 117.899
rwrist -12.6067
rhand -24.3624 21.4469
rfingers 7.12502
rthumb 2.12733 -8.52229
lclavicle -2.01207e-014 1.83876e-015
lhumerus -39.3398 -6.75251 79.7756
lradius 99.5361
lwrist -1.38359
lhand -16.1411 -6.20968
lfingers 7.12502
lthumb 10.064 23.5297
rfemur -10.4665 13.4108 29.559
rtibia 40.8253
rfoot -35.3023 -25.1894
rtoes -16.6457
lfemur -21.0642 1.72473 -16.5255
ltibia 51.7469
lfoot -29.3336 19.5667
ltoes -1.00127
